<svg width="24" height="24" viewBox="0 0 24 24" fill="none" xmlns="http://www.w3.org/2000/svg">
<path d="M4 12C4 11.7348 4.10536 11.4804 4.29289 11.2929C4.48043 11.1054 4.73478 11 5 11H12.59L10.29 8.71C10.1968 8.61676 10.1228 8.50607 10.0723 8.38425C10.0219 8.26243 9.99591 8.13186 9.99591 8C9.99591 7.86814 10.0219 7.73757 10.0723 7.61575C10.1228 7.49393 10.1968 7.38324 10.29 7.29C10.3832 7.19676 10.4939 7.1228 10.6158 7.07234C10.7376 7.02188 10.8681 6.99591 11 6.99591C11.1319 6.99591 11.2624 7.02188 11.3842 7.07234C11.5061 7.1228 11.6168 7.19676 11.71 7.29L15.71 11.29C15.801 11.3851 15.8724 11.4972 15.92 11.62C16.02 11.8635 16.02 12.1365 15.92 12.38C15.8724 12.5028 15.801 12.6149 15.71 12.71L11.71 16.71C11.617 16.8037 11.5064 16.8781 11.3846 16.9289C11.2627 16.9797 11.132 17.0058 11 17.0058C10.868 17.0058 10.7373 16.9797 10.6154 16.9289C10.4936 16.8781 10.383 16.8037 10.29 16.71C10.1963 16.617 10.1219 16.5064 10.0711 16.3846C10.0203 16.2627 9.9942 16.132 9.9942 16C9.9942 15.868 10.0203 15.7373 10.0711 15.6154C10.1219 15.4936 10.1963 15.383 10.29 15.29L12.59 13H5C4.73478 13 4.48043 12.8946 4.29289 12.7071C4.10536 12.5196 4 12.2652 4 12ZM7 2H17C17.7956 2 18.5587 2.31607 19.1213 2.87868C19.6839 3.44129 20 4.20435 20 5V19C20 19.7956 19.6839 20.5587 19.1213 21.1213C18.5587 21.6839 17.7956 22 17 22H7C6.20435 22 5.44129 21.6839 4.87868 21.1213C4.31607 20.5587 4 19.7956 4 19V16C4 15.7348 4.10536 15.4804 4.29289 15.2929C4.48043 15.1054 4.73478 15 5 15C5.26522 15 5.51957 15.1054 5.70711 15.2929C5.89464 15.4804 6 15.7348 6 16V19C6 19.2652 6.10536 19.5196 6.29289 19.7071C6.48043 19.8946 6.73478 20 7 20H17C17.2652 20 17.5196 19.8946 17.7071 19.7071C17.8946 19.5196 18 19.2652 18 19V5C18 4.73478 17.8946 4.48043 17.7071 4.29289C17.5196 4.10536 17.2652 4 17 4H7C6.73478 4 6.48043 4.10536 6.29289 4.29289C6.10536 4.48043 6 4.73478 6 5V8C6 8.26522 5.89464 8.51957 5.70711 8.70711C5.51957 8.89464 5.26522 9 5 9C4.73478 9 4.48043 8.89464 4.29289 8.70711C4.10536 8.51957 4 8.26522 4 8V5C4 4.20435 4.31607 3.44129 4.87868 2.87868C5.44129 2.31607 6.20435 2 7 2Z" fill="#E0D9F6"/>
</svg>
